<?xml version="1.0" encoding="UTF-8" standalone="no"?>
<svg
   xmlns:dc="http://purl.org/dc/elements/1.1/"
   xmlns:cc="http://creativecommons.org/ns#"
   xmlns:rdf="http://www.w3.org/1999/02/22-rdf-syntax-ns#"
   xmlns:svg="http://www.w3.org/2000/svg"
   xmlns="http://www.w3.org/2000/svg"
   xmlns:sodipodi="http://sodipodi.sourceforge.net/DTD/sodipodi-0.dtd"
   xmlns:inkscape="http://www.inkscape.org/namespaces/inkscape"
   width="1024"
   height="1024"
   viewBox="0 0 1024 1024"
   version="1.1"
   id="svg8"
   inkscape:version="1.0.1 (3bc2e813f5, 2020-09-07)"
   sodipodi:docname="icons.svg">
  <defs
     id="defs2" />
  <sodipodi:namedview
     id="base"
     pagecolor="#ffffff"
     bordercolor="#666666"
     borderopacity="1.0"
     inkscape:pageopacity="0.0"
     inkscape:pageshadow="2"
     inkscape:zoom="1.4"
     inkscape:cx="131.88315"
     inkscape:cy="43.92461"
     inkscape:document-units="px"
     inkscape:current-layer="layer1"
     inkscape:document-rotation="0"
     showgrid="true"
     units="px"
     inkscape:pagecheckerboard="true"
     inkscape:window-width="2560"
     inkscape:window-height="1403"
     inkscape:window-x="0"
     inkscape:window-y="0"
     inkscape:window-maximized="1">
    <inkscape:grid
       type="xygrid"
       id="grid833"
       empspacing="4" />
  </sodipodi:namedview>
  <metadata
     id="metadata5">
    <rdf:RDF>
      <cc:Work
         rdf:about="">
        <dc:format>image/svg+xml</dc:format>
        <dc:type
           rdf:resource="http://purl.org/dc/dcmitype/StillImage" />
        <dc:title></dc:title>
      </cc:Work>
    </rdf:RDF>
  </metadata>
  <g
     inkscape:label="Layer 1"
     inkscape:groupmode="layer"
     id="layer1"
     style="display:inline">
    <rect
       style="display:inline;fill:#000000;fill-opacity:1;stroke:none;stroke-width:4;stroke-linecap:round;stroke-linejoin:round"
       id="rect1565-3"
       width="96"
       height="96"
       x="208"
       y="144" />
    <rect
       style="fill:#000000;fill-opacity:1;stroke-width:4;stroke-linecap:round;stroke-linejoin:round"
       id="rect873"
       width="128"
       height="128"
       x="8"
       y="8" />
    <circle
       style="fill:#ffffff;fill-opacity:1;stroke-width:4;stroke-linecap:round;stroke-linejoin:round"
       id="path851"
       cx="72"
       cy="44"
       r="32" />
    <path
       style="fill:#ffffff;fill-opacity:1;stroke-width:4;stroke-linecap:round;stroke-linejoin:round"
       id="path871"
       sodipodi:type="arc"
       sodipodi:cx="72"
       sodipodi:cy="136"
       sodipodi:rx="52"
       sodipodi:ry="64"
       sodipodi:start="3.1415927"
       sodipodi:end="0"
       sodipodi:arc-type="slice"
       d="m 20,136 a 52,64 0 0 1 52,-64 52,64 0 0 1 52,64 H 72 Z" />
    <rect
       style="display:inline;fill:#000000;fill-opacity:1;stroke-width:4;stroke-linecap:round;stroke-linejoin:round"
       id="rect873-9"
       width="128"
       height="128"
       x="144"
       y="8" />
    <path
       id="path851-2"
       style="display:inline;fill:#3fbf54;fill-opacity:1;stroke:#3fbf54;stroke-width:8;stroke-linecap:round;stroke-linejoin:round;stroke-miterlimit:4;stroke-dasharray:none;stroke-opacity:1"
       d="M 208,16 A 29.538461,28.903226 0 0 0 178.46154,44.903226 29.538461,28.903226 0 0 0 197.00961,71.730091 48,57.806452 0 0 0 160,128 h 48 48 A 48,57.806452 0 0 0 218.99399,71.730091 29.538461,28.903226 0 0 0 237.53846,44.903226 29.538461,28.903226 0 0 0 208,16 Z" />
    <rect
       style="display:inline;fill:#000000;fill-opacity:1;stroke-width:4;stroke-linecap:round;stroke-linejoin:round"
       id="rect873-9-1"
       width="128"
       height="128"
       x="280"
       y="8" />
    <path
       id="path851-2-0"
       style="display:inline;fill:#c04a3f;fill-opacity:1;stroke:#bf4a3f;stroke-width:8;stroke-linecap:round;stroke-linejoin:round;stroke-miterlimit:4;stroke-dasharray:none;stroke-opacity:1"
       d="M 344,16 A 29.538461,28.903226 0 0 0 314.46154,44.903226 29.538461,28.903226 0 0 0 333.00961,71.73009 48,57.806452 0 0 0 296,128 h 48 48 A 48,57.806452 0 0 0 354.99399,71.73009 29.538461,28.903226 0 0 0 373.53846,44.903226 29.538461,28.903226 0 0 0 344,16 Z" />
    <rect
       style="display:inline;fill:#4d4d4d;fill-opacity:1;stroke-width:4;stroke-linecap:round;stroke-linejoin:round"
       id="rect873-9-1-3"
       width="128"
       height="128"
       x="416"
       y="8"
       rx="8"
       ry="8" />
    <path
       id="path851-2-0-2"
       style="display:inline;fill:#ffffff;fill-opacity:1;stroke:#ffffff;stroke-width:8.00002;stroke-linecap:round;stroke-linejoin:round;stroke-miterlimit:4;stroke-dasharray:none;stroke-opacity:1"
       d="M 480,28.000001 A 23.138461,22.709678 0 0 0 456.86154,50.709679 23.138461,22.709678 0 0 0 471.39086,71.787929 37.6,45.419355 0 0 0 442.4,116 H 480 517.6 A 37.6,45.419355 0 0 0 488.61196,71.787929 23.138461,22.709678 0 0 0 503.13846,50.709679 23.138461,22.709678 0 0 0 480,28.000001 Z" />
    <rect
       style="fill:#000000;fill-opacity:1;stroke:none;stroke-width:4;stroke-linecap:round;stroke-linejoin:round"
       id="rect1565"
       width="96"
       height="96"
       x="8"
       y="144" />
    <path
       d="M 56.133333,149 A 22.604677,22.193864 0 0 0 33.528656,171.19386 22.604677,22.193864 0 0 0 47.721791,191.79282 36.733333,44.387727 0 0 0 19.4,235 H 92.866666 A 36.733333,44.387727 0 0 0 64.546829,191.79282 22.604677,22.193864 0 0 0 78.73801,171.19386 22.604677,22.193864 0 0 0 56.133333,149 Z"
       fill="#fff"
       stroke="#fff"
       stroke-width="8"
       stroke-linecap="round"
       stroke-linejoin="round"
       id="path2"
       style="fill:#ababab;fill-opacity:1;stroke:#ababab;stroke-opacity:1" />
    <path
       d="m 255.99999,149 a 22.604677,22.193864 0 0 0 -22.60467,22.19386 22.604677,22.193864 0 0 0 14.19313,20.59896 A 36.733333,44.387727 0 0 0 219.26666,235 h 73.46667 A 36.733333,44.387727 0 0 0 264.41349,191.79282 22.604677,22.193864 0 0 0 278.60467,171.19386 22.604677,22.193864 0 0 0 255.99999,149 Z"
       stroke-width="8"
       stroke-linecap="round"
       stroke-linejoin="round"
       fill="#40bf55"
       stroke="#40bf55"
       id="path2-9"
       style="fill:#45a1ff;fill-opacity:1;stroke:#45a1ff;stroke-opacity:1" />
    <rect
       style="display:inline;fill:#000000;fill-opacity:1;stroke:none;stroke-width:4;stroke-linecap:round;stroke-linejoin:round"
       id="rect1565-8"
       width="96"
       height="96"
       x="108"
       y="144" />
    <path
       id="path1802"
       style="color:#000000;font-style:normal;font-variant:normal;font-weight:normal;font-stretch:normal;font-size:medium;line-height:normal;font-family:sans-serif;font-variant-ligatures:normal;font-variant-position:normal;font-variant-caps:normal;font-variant-numeric:normal;font-variant-alternates:normal;font-variant-east-asian:normal;font-feature-settings:normal;font-variation-settings:normal;text-indent:0;text-align:start;text-decoration:none;text-decoration-line:none;text-decoration-style:solid;text-decoration-color:#000000;letter-spacing:normal;word-spacing:normal;text-transform:none;writing-mode:lr-tb;direction:ltr;text-orientation:mixed;dominant-baseline:auto;baseline-shift:baseline;text-anchor:start;white-space:normal;shape-padding:0;shape-margin:0;inline-size:0;clip-rule:nonzero;display:inline;overflow:visible;visibility:visible;isolation:auto;mix-blend-mode:normal;color-interpolation:sRGB;color-interpolation-filters:linearRGB;solid-color:#000000;solid-opacity:1;vector-effect:none;fill:#ababab;fill-opacity:1;fill-rule:nonzero;stroke:none;stroke-width:8;stroke-linecap:round;stroke-linejoin:round;stroke-miterlimit:4;stroke-dasharray:none;stroke-dashoffset:0;stroke-opacity:1;color-rendering:auto;image-rendering:auto;shape-rendering:auto;text-rendering:auto;enable-background:accumulate;stop-color:#000000"
       d="m 156,145 c -14.60669,0 -26.60547,11.73426 -26.60547,26.19336 3.9e-4,7.85076 3.5997,15.09682 9.46485,19.98242 -13.68762,7.50137 -22.71384,23.33285 -23.5254,41.19531 l 66.67383,-66.67382 C 179.42534,153.87497 168.70187,145 156,145 Z M 176.82031,193.47461 131.29492,239 h 61.4375 a 4.0004,4.0004 0 0 0 4,-4 c -1.8e-4,-17.25458 -7.67878,-32.92843 -19.91211,-41.52539 z" />
    <rect
       style="fill:#ff0039;fill-opacity:1;stroke:none;stroke-width:16;stroke-linecap:round;stroke-linejoin:round;stroke-miterlimit:4;stroke-dasharray:none;stroke-opacity:1"
       id="rect1762"
       width="117.81331"
       x="-85.069611"
       y="237.37869"
       height="15.974687"
       rx="7.9873433"
       ry="7.9873433"
       transform="rotate(-45)" />
    <rect
       style="display:inline;fill:#000000;fill-opacity:1;stroke:none;stroke-width:4;stroke-linecap:round;stroke-linejoin:round"
       id="rect1565-8-8"
       width="96"
       height="96"
       x="308"
       y="144" />
    <path
       id="path1802-3"
       style="color:#000000;font-style:normal;font-variant:normal;font-weight:normal;font-stretch:normal;font-size:medium;line-height:normal;font-family:sans-serif;font-variant-ligatures:normal;font-variant-position:normal;font-variant-caps:normal;font-variant-numeric:normal;font-variant-alternates:normal;font-variant-east-asian:normal;font-feature-settings:normal;font-variation-settings:normal;text-indent:0;text-align:start;text-decoration:none;text-decoration-line:none;text-decoration-style:solid;text-decoration-color:#000000;letter-spacing:normal;word-spacing:normal;text-transform:none;writing-mode:lr-tb;direction:ltr;text-orientation:mixed;dominant-baseline:auto;baseline-shift:baseline;text-anchor:start;white-space:normal;shape-padding:0;shape-margin:0;inline-size:0;clip-rule:nonzero;display:inline;overflow:visible;visibility:visible;isolation:auto;mix-blend-mode:normal;color-interpolation:sRGB;color-interpolation-filters:linearRGB;solid-color:#000000;solid-opacity:1;vector-effect:none;fill:#45a1ff;fill-opacity:1;fill-rule:nonzero;stroke:none;stroke-width:8;stroke-linecap:round;stroke-linejoin:round;stroke-miterlimit:4;stroke-dasharray:none;stroke-dashoffset:0;stroke-opacity:1;color-rendering:auto;image-rendering:auto;shape-rendering:auto;text-rendering:auto;enable-background:accumulate;stop-color:#000000"
       d="m 356,145 c -14.60669,0 -26.60547,11.73426 -26.60547,26.19336 3.9e-4,7.85076 3.5997,15.09682 9.46485,19.98242 -13.68762,7.50137 -22.71384,23.33285 -23.5254,41.19531 l 66.67383,-66.67382 C 379.42534,153.87497 368.70187,145 356,145 Z M 376.82031,193.47461 331.29492,239 h 61.4375 a 4.0004,4.0004 0 0 0 4,-4 c -1.8e-4,-17.25458 -7.67878,-32.92843 -19.91211,-41.52539 z" />
    <rect
       style="display:inline;fill:#ff0039;fill-opacity:1;stroke:none;stroke-width:16;stroke-linecap:round;stroke-linejoin:round;stroke-miterlimit:4;stroke-dasharray:none;stroke-opacity:1"
       id="rect1762-1"
       width="117.81331"
       x="56.351746"
       y="378.80005"
       height="15.974687"
       rx="7.9873433"
       ry="7.9873433"
       transform="rotate(-45)" />
    <rect
       style="display:inline;fill:#000000;fill-opacity:1;stroke:none;stroke-width:4;stroke-linecap:round;stroke-linejoin:round"
       id="rect1565-8-8-9"
       width="96"
       height="96"
       x="408"
       y="144" />
    <path
       id="path1802-3-6"
       style="color:#000000;font-style:normal;font-variant:normal;font-weight:normal;font-stretch:normal;font-size:medium;line-height:normal;font-family:sans-serif;font-variant-ligatures:normal;font-variant-position:normal;font-variant-caps:normal;font-variant-numeric:normal;font-variant-alternates:normal;font-variant-east-asian:normal;font-feature-settings:normal;font-variation-settings:normal;text-indent:0;text-align:start;text-decoration:none;text-decoration-line:none;text-decoration-style:solid;text-decoration-color:#000000;letter-spacing:normal;word-spacing:normal;text-transform:none;writing-mode:lr-tb;direction:ltr;text-orientation:mixed;dominant-baseline:auto;baseline-shift:baseline;text-anchor:start;white-space:normal;shape-padding:0;shape-margin:0;inline-size:0;clip-rule:nonzero;display:inline;overflow:visible;visibility:visible;isolation:auto;mix-blend-mode:normal;color-interpolation:sRGB;color-interpolation-filters:linearRGB;solid-color:#000000;solid-opacity:1;vector-effect:none;fill:#ff0039;fill-opacity:1;fill-rule:nonzero;stroke:none;stroke-width:8;stroke-linecap:round;stroke-linejoin:round;stroke-miterlimit:4;stroke-dasharray:none;stroke-dashoffset:0;stroke-opacity:1;color-rendering:auto;image-rendering:auto;shape-rendering:auto;text-rendering:auto;enable-background:accumulate;stop-color:#000000"
       d="m 456,145 c -14.60669,0 -26.60547,11.73426 -26.60547,26.19336 3.9e-4,7.85076 3.5997,15.09682 9.46485,19.98242 -13.68762,7.50137 -22.71384,23.33285 -23.5254,41.19531 l 66.67383,-66.67382 C 479.42534,153.87497 468.70187,145 456,145 Z M 476.82031,193.47461 431.29492,239 h 61.4375 a 4.0004,4.0004 0 0 0 4,-4 c -1.8e-4,-17.25458 -7.67878,-32.92843 -19.91211,-41.52539 z" />
    <rect
       style="display:inline;fill:#ff0039;fill-opacity:1;stroke:none;stroke-width:16;stroke-linecap:round;stroke-linejoin:round;stroke-miterlimit:4;stroke-dasharray:none;stroke-opacity:1"
       id="rect1762-1-4"
       width="117.81331"
       x="127.06242"
       y="449.51071"
       height="15.974687"
       rx="7.9873433"
       ry="7.9873433"
       transform="rotate(-45)" />
  </g>
</svg>
