<?xml version="1.0" encoding="UTF-8" standalone="no"?>
<svg
   xmlns:dc="http://purl.org/dc/elements/1.1/"
   xmlns:cc="http://creativecommons.org/ns#"
   xmlns:rdf="http://www.w3.org/1999/02/22-rdf-syntax-ns#"
   xmlns:svg="http://www.w3.org/2000/svg"
   xmlns="http://www.w3.org/2000/svg"
   xmlns:sodipodi="http://sodipodi.sourceforge.net/DTD/sodipodi-0.dtd"
   xmlns:inkscape="http://www.inkscape.org/namespaces/inkscape"
   width="1024"
   height="1024"
   viewBox="0 0 1024 1024"
   version="1.1"
   id="svg8"
   inkscape:version="1.0.1 (3bc2e813f5, 2020-09-07)"
   sodipodi:docname="icon.inkscape.svg">
  <defs
     id="defs2" />
  <sodipodi:namedview
     id="base"
     pagecolor="#ffffff"
     bordercolor="#666666"
     borderopacity="1.0"
     inkscape:pageopacity="0.0"
     inkscape:pageshadow="2"
     inkscape:zoom="2.8"
     inkscape:cx="361.99898"
     inkscape:cy="1.9364616"
     inkscape:document-units="px"
     inkscape:current-layer="layer1"
     inkscape:document-rotation="0"
     showgrid="true"
     units="px"
     inkscape:pagecheckerboard="true"
     inkscape:window-width="2560"
     inkscape:window-height="1403"
     inkscape:window-x="0"
     inkscape:window-y="0"
     inkscape:window-maximized="1">
    <inkscape:grid
       type="xygrid"
       id="grid833"
       empspacing="4" />
  </sodipodi:namedview>
  <metadata
     id="metadata5">
    <rdf:RDF>
      <cc:Work
         rdf:about="">
        <dc:format>image/svg+xml</dc:format>
        <dc:type
           rdf:resource="http://purl.org/dc/dcmitype/StillImage" />
        <dc:title></dc:title>
      </cc:Work>
    </rdf:RDF>
  </metadata>
  <g
     inkscape:label="Layer 1"
     inkscape:groupmode="layer"
     id="layer1"
     style="display:inline">
    <rect
       style="fill:#000000;fill-opacity:1;stroke-width:4;stroke-linecap:round;stroke-linejoin:round"
       id="rect873"
       width="128"
       height="128"
       x="8"
       y="8" />
    <circle
       style="fill:#ffffff;fill-opacity:1;stroke-width:4;stroke-linecap:round;stroke-linejoin:round"
       id="path851"
       cx="72"
       cy="44"
       r="32" />
    <path
       style="fill:#ffffff;fill-opacity:1;stroke-width:4;stroke-linecap:round;stroke-linejoin:round"
       id="path871"
       sodipodi:type="arc"
       sodipodi:cx="72"
       sodipodi:cy="136"
       sodipodi:rx="52"
       sodipodi:ry="64"
       sodipodi:start="3.1415927"
       sodipodi:end="0"
       sodipodi:arc-type="slice"
       d="m 20,136 a 52,64 0 0 1 26,-55.425626 52,64 0 0 1 52,0 A 52,64 0 0 1 124,136 H 72 Z" />
    <rect
       style="display:inline;fill:#000000;fill-opacity:1;stroke-width:4;stroke-linecap:round;stroke-linejoin:round"
       id="rect873-9"
       width="128"
       height="128"
       x="144"
       y="8" />
    <path
       id="path851-2"
       style="display:inline;fill:#3fbf54;fill-opacity:1;stroke:#3fbf54;stroke-width:8;stroke-linecap:round;stroke-linejoin:round;stroke-miterlimit:4;stroke-dasharray:none;stroke-opacity:1"
       d="M 208,16 A 29.538461,28.903226 0 0 0 178.46154,44.903226 29.538461,28.903226 0 0 0 197.00961,71.730091 48,57.806452 0 0 0 160,128 h 48 48 A 48,57.806452 0 0 0 218.99399,71.730091 29.538461,28.903226 0 0 0 237.53846,44.903226 29.538461,28.903226 0 0 0 208,16 Z" />
    <rect
       style="display:inline;fill:#000000;fill-opacity:1;stroke-width:4;stroke-linecap:round;stroke-linejoin:round"
       id="rect873-9-1"
       width="128"
       height="128"
       x="280"
       y="8" />
    <path
       id="path851-2-0"
       style="display:inline;fill:#c04a3f;fill-opacity:1;stroke:#bf4a3f;stroke-width:8;stroke-linecap:round;stroke-linejoin:round;stroke-miterlimit:4;stroke-dasharray:none;stroke-opacity:1"
       d="M 344,16 A 29.538461,28.903226 0 0 0 314.46154,44.903226 29.538461,28.903226 0 0 0 333.00961,71.73009 48,57.806452 0 0 0 296,128 h 48 48 A 48,57.806452 0 0 0 354.99399,71.73009 29.538461,28.903226 0 0 0 373.53846,44.903226 29.538461,28.903226 0 0 0 344,16 Z" />
    <rect
       style="display:inline;fill:#4d4d4d;fill-opacity:1;stroke-width:4;stroke-linecap:round;stroke-linejoin:round"
       id="rect873-9-1-3"
       width="128"
       height="128"
       x="416"
       y="8"
       rx="8"
       ry="8" />
    <path
       id="path851-2-0-2"
       style="display:inline;fill:#ffffff;fill-opacity:1;stroke:#ffffff;stroke-width:8.00002;stroke-linecap:round;stroke-linejoin:round;stroke-miterlimit:4;stroke-dasharray:none;stroke-opacity:1"
       d="M 480,28.000001 A 23.138461,22.709678 0 0 0 456.86154,50.709679 23.138461,22.709678 0 0 0 471.39086,71.787929 37.6,45.419355 0 0 0 442.4,116 H 480 517.6 A 37.6,45.419355 0 0 0 488.61196,71.787929 23.138461,22.709678 0 0 0 503.13846,50.709679 23.138461,22.709678 0 0 0 480,28.000001 Z" />
  </g>
</svg>
